<svg width="59" height="58" viewBox="0 0 59 58" fill="none" xmlns="http://www.w3.org/2000/svg">
<g filter="url(#filter0_d_279_3088)">
<rect x="2.42603" width="50" height="50" rx="25" fill="#FFFEFE" shape-rendering="crispEdges"/>
<g clip-path="url(#clip0_279_3088)">
<path d="M22.8768 10.9867C19.8794 12.0265 17.2944 14.0002 15.5015 16.6178C13.7086 19.2353 12.8024 22.3589 12.916 25.5296C13.0296 28.7002 14.1569 31.7509 16.1324 34.2335C18.1079 36.7162 20.8275 38.4999 23.8917 39.3226C26.3759 39.9636 28.9786 39.9918 31.4761 39.4046C33.7385 38.8964 35.8302 37.8094 37.5464 36.2499C39.3325 34.5773 40.629 32.4495 41.2964 30.0953C42.0216 27.5351 42.1506 24.8428 41.6737 22.2249H27.7237V28.0117H35.8026C35.6412 28.9346 35.2952 29.8155 34.7853 30.6016C34.2755 31.3877 33.6123 32.0628 32.8354 32.5867C31.849 33.2395 30.7369 33.6786 29.5706 33.8757C28.4009 34.0933 27.2012 34.0933 26.0315 33.8757C24.8459 33.6309 23.7244 33.1416 22.7386 32.439C21.1545 31.3177 19.9651 29.7248 19.3401 27.8874C18.7047 26.0157 18.7047 23.9866 19.3401 22.1148C19.785 20.8028 20.5205 19.6082 21.4917 18.6203C22.6031 17.4689 24.0101 16.6459 25.5585 16.2415C27.1068 15.8372 28.7366 15.8671 30.269 16.3281C31.4662 16.6954 32.561 17.3375 33.4659 18.2031C34.3768 17.2968 35.2862 16.3882 36.194 15.4773C36.6628 14.9874 37.1737 14.521 37.6354 14.0195C36.2539 12.734 34.6323 11.7336 32.8636 11.0757C29.6426 9.90618 26.1182 9.87475 22.8768 10.9867Z" fill="white"/>
<path d="M22.8769 10.9867C26.118 9.87403 29.6423 9.90463 32.8636 11.0734C34.6327 11.7358 36.2535 12.741 37.6332 14.0312C37.1644 14.5328 36.6699 15.0016 36.1917 15.4891C35.2824 16.3969 34.3738 17.3016 33.466 18.2031C32.561 17.3375 31.4663 16.6954 30.2691 16.3281C28.7372 15.8656 27.1074 15.8339 25.5587 16.2366C24.0099 16.6393 22.602 17.4608 21.4894 18.6109C20.5182 19.5989 19.7827 20.7935 19.3378 22.1055L14.4792 18.3437C16.2183 14.8951 19.2294 12.2571 22.8769 10.9867Z" fill="#E33629"/>
<path d="M13.19 22.0703C13.451 20.776 13.8845 19.5226 14.4791 18.3438L19.3377 22.1148C18.7023 23.9866 18.7023 26.0157 19.3377 27.8875C17.7189 29.1375 16.0994 30.3938 14.4791 31.6563C12.9912 28.6945 12.5374 25.3199 13.19 22.0703Z" fill="#F8BD00"/>
<path d="M27.7237 22.2227H41.6737C42.1506 24.8405 42.0215 27.5328 41.2964 30.093C40.6289 32.4472 39.3325 34.575 37.5464 36.2477C35.9784 35.0242 34.4034 33.8102 32.8354 32.5867C33.6128 32.0624 34.2763 31.3865 34.7861 30.5995C35.296 29.8126 35.6417 28.9308 35.8026 28.007H27.7237C27.7214 26.0805 27.7237 24.1516 27.7237 22.2227Z" fill="#587DBD"/>
<path d="M14.4768 31.6562C16.0971 30.4062 17.7167 29.15 19.3354 27.8875C19.9617 29.7254 21.1528 31.3185 22.7385 32.439C23.7275 33.1383 24.8514 33.6236 26.0385 33.864C27.2082 34.0816 28.4079 34.0816 29.5776 33.864C30.7439 33.6669 31.856 33.2278 32.8424 32.575C34.4104 33.7984 35.9854 35.0125 37.5534 36.2359C35.8375 37.7962 33.7458 38.884 31.4831 39.3929C28.9856 39.98 26.3829 39.9519 23.8987 39.3109C21.9339 38.7863 20.0987 37.8615 18.5081 36.5945C16.8246 35.2577 15.4495 33.5732 14.4768 31.6562Z" fill="#319F43"/>
</g>
</g>
<defs>
<filter id="filter0_d_279_3088" x="0.426025" y="0" width="58" height="58" filterUnits="userSpaceOnUse" color-interpolation-filters="sRGB">
<feFlood flood-opacity="0" result="BackgroundImageFix"/>
<feColorMatrix in="SourceAlpha" type="matrix" values="0 0 0 0 0 0 0 0 0 0 0 0 0 0 0 0 0 0 127 0" result="hardAlpha"/>
<feOffset dx="2" dy="4"/>
<feGaussianBlur stdDeviation="2"/>
<feComposite in2="hardAlpha" operator="out"/>
<feColorMatrix type="matrix" values="0 0 0 0 0 0 0 0 0 0 0 0 0 0 0 0 0 0 0.08 0"/>
<feBlend mode="normal" in2="BackgroundImageFix" result="effect1_dropShadow_279_3088"/>
<feBlend mode="normal" in="SourceGraphic" in2="effect1_dropShadow_279_3088" result="shape"/>
</filter>
<clipPath id="clip0_279_3088">
<rect width="30" height="30" fill="white" transform="translate(12.426 10)"/>
</clipPath>
</defs>
</svg>
