<svg width="55" height="55" viewBox="0 0 55 55" fill="none" xmlns="http://www.w3.org/2000/svg">
<circle cx="27.5" cy="27.5" r="27.5" fill="#E4E4FF"/>
<path opacity="0.5" d="M24.9766 30.7025C24.5449 31.0817 23.8217 31.101 23.3612 30.7454C22.9007 30.3899 22.8774 29.7943 23.3091 29.4151L27.5948 25.6504C28.0123 25.2837 28.7061 25.2519 29.1704 25.5782L32.553 27.9553L36.9601 23.358C37.3512 22.95 38.0699 22.8804 38.5653 23.2025C39.0607 23.5246 39.1452 24.1164 38.7541 24.5244L33.6113 29.8891C33.2096 30.3081 32.4655 30.3684 31.9724 30.0218L28.5164 27.5931L24.9766 30.7025Z" fill="#AAA9FF"/>
<path d="M19.2222 35.2222H35.8889C36.5025 35.2222 37 35.6202 37 36.1111C37 36.602 36.5025 37 35.8889 37H18.1111C17.4975 37 17 36.602 17 36.1111V21.8889C17 21.398 17.4975 21 18.1111 21C18.7248 21 19.2222 21.398 19.2222 21.8889V35.2222Z" fill="#8280FF"/>
</svg>
