<svg width="56" height="55" viewBox="0 0 56 55" fill="none" xmlns="http://www.w3.org/2000/svg">
<ellipse cx="27.8399" cy="27.5" rx="27.2901" ry="27.5" fill="#FEF2D6"/>
<g clip-path="url(#clip0_634_4442)">
<path fill-rule="evenodd" clip-rule="evenodd" d="M15.3857 23.6386L26.3122 29.947C26.4298 30.0149 26.5532 30.064 26.6788 30.0951V42.33L16.165 36.1079C15.682 35.822 15.3857 35.3024 15.3857 34.7412V23.6386ZM40.795 23.4707V34.741C40.795 35.3022 40.4987 35.8218 40.0157 36.1077L29.5019 42.3298V29.9878C29.5275 29.975 29.5529 29.9613 29.5781 29.9468L40.795 23.4707Z" fill="#FEC53D"/>
<path opacity="0.499209" fill-rule="evenodd" clip-rule="evenodd" d="M15.729 20.5767C15.8625 20.4081 16.0309 20.2657 16.2273 20.1611L27.3439 14.2401C27.8106 13.9916 28.3704 13.9916 28.837 14.2401L39.9536 20.1611C40.105 20.2417 40.2398 20.3448 40.3548 20.4651L28.1666 27.5019C28.0865 27.5482 28.0126 27.6011 27.9452 27.6596C27.8779 27.6011 27.804 27.5482 27.7239 27.5019L15.729 20.5767Z" fill="#FEC53D"/>
</g>
<defs>
<clipPath id="clip0_634_4442">
<rect width="27.8929" height="27.8929" fill="white" transform="translate(14.3896 14.0537)"/>
</clipPath>
</defs>
</svg>
