<svg width="55" height="55" viewBox="0 0 55 55" fill="none" xmlns="http://www.w3.org/2000/svg">
<circle cx="27.5" cy="27.5" r="27.5" fill="#DCFAF8"/>
<path d="M28.0002 25.3792C28.4963 25.3792 28.9015 25.7833 28.9015 26.2794C28.9015 26.7321 29.2694 27.099 29.7221 27.099C30.1737 27.099 30.5416 26.7321 30.5416 26.2794C30.5416 25.1674 29.8172 24.2289 28.8198 23.8858V23.4207C28.8198 22.9691 28.4529 22.6001 28.0002 22.6001C27.5465 22.6001 27.1796 22.9691 27.1796 23.4207V23.8858C26.1823 24.2289 25.4599 25.1674 25.4599 26.2794C25.4599 27.6819 26.5988 28.8208 28.0002 28.8208C28.4963 28.8208 28.9015 29.226 28.9015 29.7221C28.9015 30.2192 28.4963 30.6233 28.0002 30.6233C27.5041 30.6233 27.1 30.2192 27.1 29.7221C27.1 29.2694 26.7321 28.9015 26.2794 28.9015C25.8257 28.9015 25.4599 29.2694 25.4599 29.7221C25.4599 30.8341 26.1823 31.7715 27.1796 32.1147V32.5797C27.1796 33.0335 27.5465 33.4014 28.0002 33.4014C28.4529 33.4014 28.8198 33.0335 28.8198 32.5797V32.1147C29.8172 31.7715 30.5416 30.8341 30.5416 29.7221C30.5416 28.3206 29.4017 27.1807 28.0002 27.1807C27.5041 27.1807 27.1 26.7766 27.1 26.2794C27.1 25.7833 27.5041 25.3792 28.0002 25.3792ZM34.8721 32.5549C35.2741 32.7668 35.7692 32.6128 35.98 32.2139C36.6621 30.9251 37.0218 29.4678 37.0218 28.0002C37.0218 23.027 32.9735 18.9797 28.0002 18.9797C23.0259 18.9797 18.9787 23.027 18.9787 28.0002C18.9787 32.9745 23.0259 37.0218 28.0002 37.0218C29.4461 37.0218 30.8827 36.6725 32.155 36.01C32.557 35.8022 32.7131 35.3051 32.5043 34.9041C32.2955 34.5041 31.8005 34.345 31.3974 34.5548C30.3442 35.1046 29.2001 35.3826 28.0002 35.3826C23.9303 35.3826 20.6178 32.0713 20.6178 28.0002C20.6178 23.9313 23.9303 20.6189 28.0002 20.6189C32.0702 20.6189 35.3826 23.9313 35.3826 28.0002C35.3826 29.2022 35.0871 30.3939 34.531 31.446C34.3181 31.847 34.4711 32.3431 34.8721 32.5549ZM28.0002 15.6973C25.6242 15.6973 23.3174 16.3773 21.3299 17.662C20.9486 17.908 20.84 18.4154 21.086 18.7957C21.333 19.1761 21.8384 19.2836 22.2208 19.0397C23.9406 17.9276 25.9415 17.3385 28.0002 17.3385C33.8799 17.3385 38.662 22.1216 38.662 28.0002C38.662 33.8799 33.8799 38.663 28.0002 38.663C22.1206 38.663 17.3375 33.8799 17.3375 28.0002C17.3375 25.9611 17.9152 23.9778 19.0097 22.2673C19.2536 21.8849 19.142 21.3775 18.7596 21.1336C18.3782 20.8896 17.8707 21.0013 17.6279 21.3826C16.3649 23.3577 15.6973 25.648 15.6973 28.0002C15.6973 34.7853 21.2152 40.3032 28.0002 40.3032C34.7842 40.3032 40.3032 34.7853 40.3032 28.0002C40.3032 21.2173 34.7842 15.6973 28.0002 15.6973Z" fill="#16DBCC"/>
</svg>
